<?xml version="1.0" encoding="utf-8"?>
<!-- Generator: Adobe Illustrator 16.0.0, SVG Export Plug-In . SVG Version: 6.00 Build 0)  -->
<!DOCTYPE svg PUBLIC "-//W3C//DTD SVG 1.1//EN" "http://www.w3.org/Graphics/SVG/1.1/DTD/svg11.dtd">
<svg version="1.1" id="Calque_3" xmlns="http://www.w3.org/2000/svg" xmlns:xlink="http://www.w3.org/1999/xlink" x="0px" y="0px"
	 width="450px" height="240px" viewBox="0 0 450 240" enable-background="new 0 0 450 240" xml:space="preserve">
<g>
	<path fill-rule="evenodd" clip-rule="evenodd" fill="#565656" d="M157.616,144.586c-6.115-2.979-12.23-5.958-18.345-8.937
		c0.184-0.183,0.368-0.363,0.552-0.545c5.869-0.159,8.623-3.871,10.196-8.935c2.584,0.979,5.168,1.958,7.752,2.937
		c1.039,5.66,1.261,5.769,5.486,2.607c0.681-0.512,1.309-1.092,1.962-1.642c6.911,0.893,13.823,1.786,20.735,2.676
		c1.342,0.003,2.685,0.003,4.028,0.005c2.529-0.481,5.057-0.963,7.586-1.445c0.377,1.655,0.754,3.308,1.131,4.962
		c0.459,0.008,0.918,0.019,1.377,0.028c1.183-1.839,2.363-3.681,3.781-5.891c4.931,2.109,9.62,4.111,14.31,6.115
		c6.767,8.374,12.426,8.459,19.518,0.297c8.342-4.981,9.697-13.148,9.953-21.819c0.175-0.135,0.35-0.27,0.523-0.403
		c0.747,0.948,1.493,1.898,2.239,2.847c0.469,3.281,0.938,6.563,1.405,9.842c-0.086,0.145-0.266,0.313-0.238,0.429
		c0.069,0.29,0.234,0.555,0.36,0.83c0.764,0.585,1.525,1.17,2.288,1.756c1.34,0.764,2.683,1.525,4.022,2.287
		c1.276,0.451,2.55,0.9,3.826,1.353c0.168,0.431,0.336,0.864,0.504,1.296c5.121,6.762,11.307,8.492,18.83,4.01
		c0.908-0.539,1.886-0.971,2.829-1.451c2.143-0.39,4.284-0.777,6.427-1.166c1.698-0.86,3.396-1.723,5.095-2.583
		c0.936-0.461,1.869-0.923,2.806-1.385c3.351-0.47,6.69-1.077,10.057-1.359c2.162-0.182,4.364,0.118,6.55,0.204l-0.004-0.005
		c1.354,1.756,2.71,3.508,4.065,5.262c-10.354,6.134-20.716,12.253-31.05,18.42c-1.053,0.628-1.934,1.546-3.427,2.765
		c2.29,2.148,4.563,3.76,6.167,5.879c7.479,9.865,12.234,20.549,9.271,33.377c-0.479,2.071-0.442,4.261-0.644,6.396
		c-1.73,3.609-3.462,7.225-5.232,10.916c-4.515-2.888-8.507-5.442-12.859-8.227c0,8.08,0,15.005,0,21.928l0.038-0.043
		c-4.43-1.242-8.933-2.277-13.277-3.773c-12.982-4.469-24.137-11.521-31.981-23.161c-3.526-5.234-7.253-10.334-11.521-16.39
		c-2.586,4.283-4.618,7.65-6.652,11.018c-6.405,8.833-16.009,12.8-25.578,16.823c-11.06,2-22.118,4.068-33.963,1.942
		c1.093-2.559,2.069-4.458,2.715-6.46c0.618-1.917,0.893-3.945,1.426-6.427c-1.724,0.083-2.572-0.027-3.328,0.184
		c-15.67,4.374-17.063,2.803-13.695-13.713c2.417-11.852,7.462-22.267,14.903-31.695c2.26-2.862,4.004-6.131,6.626-10.217
		C162.972,145.549,160.294,145.067,157.616,144.586z M176.835,200.35c12.973,3.583,32.951-8.022,37.24-21.609
		c3.124-9.896,3.7-19.975,0.542-30.127c-1.949-6.265-6.978-9.616-13.194-7.493c-19.204,6.558-33.736,18.574-41.984,37.428
		c-0.791,1.806-0.104,4.26-0.104,6.801c5.285-0.909,9.597-1.179,13.589-2.453c5.041-1.609,5.655,0.934,5.341,4.712
		C177.917,191.805,177.336,195.981,176.835,200.35z M271.653,189.091c1.335,0.53,2.455,0.959,3.563,1.415
		c2.942,1.216,5.879,2.441,8.818,3.665c0.063-3.226,0.777-6.601,0.08-9.65c-3.867-16.909-14.065-29.433-28.36-38.679
		c-1.724-1.115-6.048-0.926-7.259,0.398c-3.209,3.514-7.11,4.374-11.296,5.307c-7.665,1.71-8.911,3.706-6.289,11.386
		c2.271,6.648,4.753,13.297,7.931,19.545c5.341,10.497,13.018,19.134,23.604,24.614c6.9,3.576,10.01,1.523,10.078-6.219
		C272.555,197.086,271.984,193.296,271.653,189.091z"/>
	<path fill-rule="evenodd" clip-rule="evenodd" fill="#565656" d="M139.271,135.649c-1.138-0.573-2.277-1.14-3.413-1.714
		c-0.84-1.293-1.68-2.587-2.52-3.881c-0.205-0.382-0.409-0.762-0.614-1.143c-1.589-1.238-3.18-2.474-4.769-3.713
		c-0.414-0.494-0.827-0.988-1.24-1.482c-2.629-3.621-5.766-6.982-7.78-10.918c-3.657-7.144-1.712-11.075,5.796-13.57
		c1.65-0.547,3.208-1.366,5.294-2.271c-5.685-2.67-10.697-4.536-15.186-7.262c-4.723-2.871-4.854-6.286,0.135-8.6
		c7.878-3.652,16.109-7.213,24.569-8.796c15.497-2.898,31.104-1.153,46.454,2.306c3.373,0.761,4.614-0.647,5.184-3.779
		c0.568-3.111,1.646-6.128,2.5-9.187l0.03-0.044c3.181-16.024,11.976-29.198,21.422-42.02c2.119-2.879,4.056-1.227,5.766,0.688
		c2.065,2.31,4.099,4.648,6.456,7.326c3.999-3.763,7.175-6.928,10.537-9.88c8.26-7.248,8.866-5.654,13.576,1.436
		c0.708,1.065,1.246,2.261,1.735,3.447c2.937,7.126,5.836,14.267,8.746,21.403c0.581,8.485,1.159,16.969,1.738,25.455
		c0,3.109,0,6.22,0,10.66c27.064-11.245,50.979-7.73,72.132,11.333c-2.555,3.776-5.108,7.552-7.363,10.884
		c4.476,3.393,8.853,6.463,12.934,9.885c2.929,2.456,2.29,5.443-0.354,7.655c-6.341,5.305-12.875,10.384-19.33,15.553
		c-1.707-3.945-3.413-7.891-5.12-11.835c4.172-2.252,8.341-4.505,13.511-7.296c-7.326-5.275-13.945-7.032-21.132-7.075
		c-1.792-8.241,2.44-13.689,9.375-18.327c-3.444-1.48-6.177-2.121-8.943-2.5c-16.4-2.247-32.358-0.98-47.206,6.943
		c-7.644,4.08-12.934,10.239-14.031,19.268c-0.174,0.134-0.349,0.269-0.523,0.403c-0.944-0.58-1.89-1.158-2.683-1.645
		c-1.547,4.63-2.951,8.835-4.354,13.039c-2.793-10.887-5.933-13.976-14.347-14.109c-1.513-0.504-3.252-1.758-4.499-1.382
		c-4.653,1.408-9.146,3.347-13.7,5.087c-0.676-2.637-0.872-5.526-2.104-7.872c-9.077-17.288-24.855-23.921-43.059-25.619
		c-8.4-0.784-17.198-1.466-25.108,3.214c-4.308,2.55-4.482,4.549-0.272,7.365c3.397,2.272,6.976,4.271,10.871,6.633
		c-5.98,2.592-11.272,4.76-16.45,7.173c-3.557,1.656-3.4,4.245-0.76,6.582c3.495,3.091,7.242,5.898,10.878,8.827
		c0.901,1.617,1.798,3.233,2.224,3.997c-1.763,3.489-3.107,6.152-4.453,8.813C139.638,135.286,139.454,135.467,139.271,135.649z
		 M237.642,110.875c19.074-22.964,20.221-63.596,1.747-75.106c-3.69,5.673-7.398,11.37-11.462,17.618
		c-2.51-6.319-4.744-11.937-6.992-17.601c-20.06,9.521-20.008,50.072-3.54,74.023C224.582,99.732,231.097,107.797,237.642,110.875z"
		/>
	<path fill-rule="evenodd" clip-rule="evenodd" fill="#CACACA" d="M261.951,43.996c-2.91-7.136-5.81-14.276-8.746-21.403
		c-0.489-1.187-1.027-2.382-1.735-3.447c-4.71-7.09-5.316-8.684-13.576-1.436c-3.362,2.952-6.538,6.117-10.537,9.88
		c-2.357-2.678-4.391-5.016-6.456-7.326c-1.71-1.914-3.646-3.566-5.766-0.688c-9.446,12.821-18.241,25.996-21.422,42.02l-0.03,0.044
		c-0.854,3.059-1.931,6.076-2.5,9.187c-0.57,3.131-1.811,4.54-5.184,3.779c-15.35-3.459-30.958-5.205-46.454-2.306
		c-8.46,1.583-16.691,5.144-24.569,8.796c-4.989,2.313-4.858,5.729-0.135,8.6c4.489,2.726,9.5,4.592,15.186,7.262
		c-2.086,0.905-3.645,1.724-5.294,2.271c-7.508,2.496-9.453,6.426-5.796,13.57c2.014,3.936,5.15,7.298,7.78,10.918
		c0.413,0.494,0.826,0.988,1.24,1.482c1.589,1.239,3.179,2.475,4.769,3.713c0.206,0.381,0.41,0.761,0.614,1.143
		c0.84,1.294,1.68,2.588,2.52,3.881c-10.423-3.21-17.682-10.348-23.028-19.416c-2.487-4.219-2.457-9.156,0.116-13.62
		c2.134-3.7,2.005-6.261-1.73-9.302c-6.408-5.22-5.985-10.62,1-15.706c8.305-6.048,17.707-9.985,28.052-10.128
		c11.148-0.154,22.323,0.442,33.463,1.099c9.337,0.55,10.724-0.183,14.865-8.719c6.091-12.554,12.379-25.014,18.69-37.458
		c0.953-1.882,2.368-3.579,3.793-5.161c2.722-3.024,5.495-3.362,8.961-0.613c5.707,4.53,8.926,3.859,13.556-1.744
		c1.611-1.95,3.498-3.775,5.563-5.223c4.274-3,8.161-2.422,11.076,1.779C257.372,20.013,261.263,31.473,261.951,43.996z"/>
	<path fill-rule="evenodd" clip-rule="evenodd" fill="#CACACA" d="M157.616,144.586c2.679,0.481,5.356,0.963,9.545,1.718
		c-2.622,4.086-4.366,7.354-6.626,10.217c-7.44,9.429-12.485,19.844-14.903,31.695c-3.369,16.516-1.975,18.087,13.695,13.713
		c0.756-0.211,1.604-0.101,3.328-0.184c-0.534,2.481-0.809,4.51-1.426,6.427c-0.646,2.002-1.622,3.901-2.715,6.46
		c11.846,2.126,22.903,0.058,33.963-1.942c-12.427,6.474-25.624,7.602-39.625,6.073c-0.191-1.587-0.463-2.797-0.46-4.008
		c0.013-6.851,0.018-6.731-7.099-7.821c-4.482-0.689-5.654-4.054-5.689-8.069c-0.137-16.272,5.886-30.136,16.655-42.068
		C161.103,151.429,161.311,150.533,157.616,144.586z"/>
	<path fill-rule="evenodd" clip-rule="evenodd" fill="#CACACA" d="M335.821,91.443c-21.153-19.063-45.067-22.577-72.132-11.333
		c0-4.44,0-7.551,0-10.66c2.882,0.098,5.986,0.95,8.607,0.172c14.598-4.34,28.857-2.708,42.561,2.824
		c6.993,2.822,13.341,7.377,19.703,11.568C337.015,85.632,339.112,88.348,335.821,91.443z"/>
	<path fill-rule="evenodd" clip-rule="evenodd" fill="#CBCBCB" d="M218.055,195.866c2.034-3.367,4.066-6.734,6.652-11.018
		c4.269,6.056,7.995,11.155,11.521,16.39c7.845,11.64,18.999,18.692,31.981,23.161c4.345,1.496,8.848,2.531,13.277,3.773
		c-0.845,4.586-3.235,5.22-7.437,3.606c-16.912-6.484-31.87-15.324-41.953-31.127C227.205,192.983,224.777,192.579,218.055,195.866z
		"/>
	<path fill-rule="evenodd" clip-rule="evenodd" fill="#050505" d="M316.588,123.585c1.707,3.944,3.413,7.89,5.12,11.835
		c-0.829,0.446-1.657,0.896-2.485,1.342c-1.355-1.754-2.711-3.506-4.065-5.262l0.004,0.005c-2.186-0.086-4.388-0.386-6.55-0.204
		c-3.366,0.282-6.706,0.89-10.057,1.359l-0.369,0.134c-0.154-0.33-0.31-0.661-0.465-0.991c-0.231,0.313-0.465,0.625-0.697,0.938
		c-0.425,0.437-0.851,0.87-1.274,1.304c-1.698,0.86-3.396,1.723-5.095,2.583c0.3-6.033,11.046-20.136,16.759-21.968
		c0.402-0.129,0.847-0.125,1.273-0.184C311.321,117.511,313.954,120.547,316.588,123.585z M303.618,127.696
		c0.842-0.126,1.685-0.252,2.527-0.376c1.315-1.21,2.63-2.418,3.947-3.627c-0.095-0.446-0.188-0.893-0.282-1.337
		c-0.353-0.438-0.705-0.875-1.059-1.313c-3.266-1.923-3.621,1.12-4.774,2.8c-0.735,0.958-1.546,1.873-2.17,2.9
		c-0.257,0.423-0.107,1.095-0.145,1.651C302.315,128.163,302.967,127.929,303.618,127.696z"/>
	<path fill-rule="evenodd" clip-rule="evenodd" fill="#C8C8C8" d="M281.449,228.216c0-6.923,0-13.848,0-21.928
		c4.353,2.784,8.345,5.339,12.859,8.227c1.771-3.691,3.502-7.307,5.232-10.916c-0.021,9.36-2.065,12.044-10.251,14.651
		c-1.76,0.561-3.315,2.361-4.51,3.936C283.405,223.997,282.536,226.188,281.449,228.216z"/>
	<path fill-rule="evenodd" clip-rule="evenodd" fill="#FEFEFE" d="M142.052,122.294c-3.637-2.929-7.384-5.736-10.878-8.827
		c-2.641-2.337-2.797-4.925,0.76-6.582c5.178-2.413,10.47-4.581,16.45-7.173c-3.895-2.362-7.474-4.36-10.871-6.633
		c-4.21-2.816-4.036-4.815,0.272-7.365c7.91-4.681,16.708-3.998,25.108-3.214c18.204,1.697,33.982,8.331,43.059,25.619
		c1.232,2.345,1.428,5.234,2.104,7.872c-1.634,1.163-3.271,2.328-4.978,3.544c-1.428-3.546-2.698-6.7-4.509-11.195
		c-4.217,6.346,1.58,14.772-8.124,16.943c2.202,1.326,3.91,1.519,5.064,2.419c1.01,0.787,1.397,2.373,2.06,3.606
		c-2.529,0.482-5.057,0.964-7.586,1.445c-2.596-5.162-4.873-10.517-7.862-15.441c-4.104-6.762-6.684-6.931-12.132-1.34
		c-4.173,4.281-8.153,8.751-12.217,13.135c-2.584-0.979-5.168-1.957-7.752-2.937c-0.874-1.836-1.747-3.672-2.806-5.899
		c2.409-1.362,4.702-2.798,7.117-3.986c2.747-1.352,5.219-2.716,4.296-6.519C150.256,111.075,143.336,116.408,142.052,122.294z"/>
	<path fill-rule="evenodd" clip-rule="evenodd" fill="#FEFEFE" d="M176.835,200.35c0.5-4.368,1.082-8.545,1.43-12.742
		c0.313-3.778-0.3-6.321-5.341-4.712c-3.992,1.274-8.304,1.544-13.589,2.453c0-2.541-0.687-4.995,0.104-6.801
		c8.248-18.854,22.78-30.87,41.984-37.428c6.216-2.123,11.246,1.229,13.194,7.493c3.158,10.152,2.582,20.231-0.542,30.127
		C209.786,192.327,189.809,203.933,176.835,200.35z"/>
	<path fill-rule="evenodd" clip-rule="evenodd" fill="#FEFEFE" d="M271.653,189.091c0.331,4.205,0.901,7.995,0.869,11.782
		c-0.068,7.742-3.178,9.795-10.078,6.219c-10.586-5.48-18.263-14.117-23.604-24.614c-3.178-6.248-5.659-12.896-7.931-19.545
		c-2.622-7.68-1.376-9.676,6.289-11.386c4.186-0.933,8.087-1.793,11.296-5.307c1.211-1.324,5.535-1.514,7.259-0.398
		c14.295,9.246,24.493,21.77,28.36,38.679c0.697,3.05-0.018,6.425-0.08,9.65c-2.939-1.224-5.876-2.449-8.818-3.665
		C274.108,190.05,272.988,189.621,271.653,189.091z"/>
	<path fill-rule="evenodd" clip-rule="evenodd" fill="#FEFEFE" d="M308.687,114.477c-0.427,0.059-0.871,0.055-1.273,0.184
		c-5.713,1.832-16.459,15.935-16.759,21.968c-2.143,0.389-4.284,0.776-6.427,1.166c-0.472-0.881-0.942-1.765-1.416-2.645
		c1.03-1.226,2.062-2.454,3.537-4.212c-5.93-0.767-10.674-1.38-16.311-2.106c1.493-1.125,2.017-1.452,2.463-1.864
		c2.784-2.564,7.763-3.601,6.497-9.032c-1.232-5.284-6.364-4.835-9.755-5.297c-6.143-0.835-12.894-1.463-17.528,4.576
		c-0.438,0.078-0.876,0.154-1.314,0.229c-0.746-0.949-1.492-1.898-2.239-2.847c1.098-9.028,6.388-15.188,14.031-19.268
		c14.848-7.923,30.806-9.19,47.206-6.943c2.767,0.379,5.499,1.02,8.943,2.5c-6.935,4.638-11.167,10.086-9.375,18.327
		C308.873,110.968,308.779,112.723,308.687,114.477z"/>
	<path fill-rule="evenodd" clip-rule="evenodd" fill="#FEFEFE" d="M226.254,112.285c8.414,0.134,11.554,3.222,14.347,14.109
		c-1.878,1.655-3.756,3.31-5.633,4.964c-1.234-2.229-2.854-4.341-3.583-6.722c-0.599-1.962,0.092-4.286-0.255-6.374
		c-0.161-0.986-1.407-1.791-2.162-2.679c-0.512,0.2-1.023,0.4-1.535,0.599c0,3.563-0.373,7.175,0.078,10.678
		c0.936,7.308,3.481,9.58,10.174,9.958c-7.092,8.162-12.751,8.077-19.518-0.297c3.604-3.948-1.059-4.444-2.606-6.241
		c0.954-4.322,1.907-8.643,2.863-12.967C221.034,115.64,223.644,113.962,226.254,112.285z"/>
	<path fill-rule="evenodd" clip-rule="evenodd" d="M226.254,112.285c-2.61,1.677-5.22,3.354-7.83,5.029
		c-3.463,1.576-6.926,3.153-10.39,4.729c-0.814,0.535-1.629,1.072-2.445,1.609c3.323,2.207,6.647,4.417,9.971,6.628
		c1.548,1.797,6.21,2.293,2.606,6.241c-4.689-2.004-9.378-4.006-14.31-6.115c-1.417,2.21-2.598,4.052-3.781,5.891
		c-0.459-0.01-0.918-0.021-1.377-0.028c-0.377-1.654-0.754-3.307-1.131-4.962c-0.663-1.233-1.049-2.819-2.06-3.606
		c-1.154-0.9-2.862-1.093-5.064-2.419c9.704-2.171,3.907-10.597,8.124-16.943c1.811,4.495,3.081,7.648,4.509,11.195
		c1.706-1.216,3.343-2.381,4.978-3.544c4.554-1.74,9.047-3.68,13.7-5.087C223.002,110.527,224.741,111.781,226.254,112.285z"/>
	<path fill-rule="evenodd" clip-rule="evenodd" d="M157.771,129.106c4.064-4.384,8.044-8.854,12.217-13.135
		c5.448-5.591,8.028-5.421,12.132,1.34c2.989,4.925,5.266,10.279,7.862,15.441c-1.343-0.002-2.686-0.002-4.028-0.005
		c-1.685-4.386-4.185-6.325-9.204-4.306c-3.012,1.214-6.544,1.128-9.843,1.627c-0.093-0.837-0.187-1.675-0.28-2.515
		c0.447-0.441,0.896-0.885,1.344-1.327c0.915-0.383,1.831-0.767,2.743-1.149c3.03-0.966,6.059-1.935,9.961-3.178
		c-2.097-2.346-3.162-3.537-4.568-5.11c-2.697,3.147-4.851,5.663-7.004,8.177c-0.341,0.457-0.682,0.914-1.024,1.37
		c-0.447,0.446-0.893,0.891-1.337,1.334c-0.442,0.835-0.884,1.67-1.327,2.505l-0.196-0.104c-0.654,0.55-1.282,1.13-1.962,1.642
		C159.032,134.875,158.81,134.767,157.771,129.106z"/>
	<path fill-rule="evenodd" clip-rule="evenodd" d="M237.685,136.819c-6.692-0.378-9.238-2.65-10.174-9.958
		c-0.451-3.503-0.078-7.115-0.078-10.678c0.512-0.199,1.023-0.399,1.535-0.599c0.755,0.888,2.001,1.693,2.162,2.679
		c0.347,2.088-0.344,4.412,0.255,6.374c0.729,2.381,2.349,4.492,3.583,6.722c1.877-1.654,3.755-3.309,5.633-4.964
		c1.403-4.204,2.808-8.409,4.354-13.039c0.793,0.486,1.738,1.065,2.683,1.645C247.382,123.671,246.026,131.838,237.685,136.819z"/>
	<path fill-rule="evenodd" clip-rule="evenodd" d="M142.052,122.294c1.284-5.886,8.204-11.219,16.574-12.528
		c0.923,3.803-1.549,5.167-4.296,6.519c-2.415,1.188-4.708,2.624-7.117,3.986c1.059,2.227,1.932,4.063,2.806,5.899
		c-1.573,5.063-4.327,8.775-10.196,8.935c1.345-2.661,2.69-5.324,4.453-8.813C143.85,125.527,142.953,123.911,142.052,122.294z"/>
	<path fill-rule="evenodd" clip-rule="evenodd" fill="#C9C9C9" d="M282.812,135.149c0.474,0.88,0.944,1.764,1.416,2.645
		c-0.943,0.48-1.921,0.912-2.829,1.451c-7.523,4.482-13.709,2.752-18.83-4.01c2.903-0.691,5.808-1.385,8.711-2.078
		C275.124,133.823,278.968,134.486,282.812,135.149z"/>
	<path fill-rule="evenodd" clip-rule="evenodd" fill="#CCCCCC" d="M250.4,117.443c0.438-0.076,0.877-0.151,1.314-0.229
		c3.525,0.083,7.05,0.164,10.573,0.245c1.706,2.416,3.413,4.833,5.119,7.251c-0.938,0.955-1.876,1.917-2.813,2.876
		c-0.351,0-0.7,0.002-1.051,0.007h0.001c-0.347-0.422-0.695-0.845-1.044-1.267c-1.282-2.19-2.564-4.385-3.847-6.578
		c-0.501,0.233-1.004,0.467-1.504,0.702c0,2.77,0,5.539,0,8.305c-0.979,0.516-1.957,1.03-2.935,1.545
		c-0.763-0.586-1.524-1.171-2.288-1.756c-0.031-0.421-0.072-0.841-0.122-1.259C251.338,124.006,250.869,120.724,250.4,117.443z"/>
	<path fill-rule="evenodd" clip-rule="evenodd" fill="#CACACA" d="M166.908,130.069c3.299-0.499,6.832-0.413,9.843-1.627
		c5.019-2.02,7.519-0.08,9.204,4.306c-6.912-0.89-13.825-1.783-20.735-2.676l0.196,0.104
		C165.914,130.141,166.411,130.104,166.908,130.069z"/>
	<path fill-rule="evenodd" clip-rule="evenodd" d="M257.15,128.755c0-2.767,0-5.535,0-8.305c0.5-0.234,1.003-0.469,1.504-0.702
		c1.282,2.193,2.564,4.388,3.847,6.578c-0.134,0.422-0.146,0.845-0.039,1.274c-0.132,2.111-0.264,4.225-0.397,6.339
		c-1.276-0.452-2.55-0.901-3.826-1.353C257.877,131.312,257.514,130.035,257.15,128.755z"/>
	<path fill-rule="evenodd" clip-rule="evenodd" fill="#CECECE" d="M262.064,133.939c0.134-2.114,0.266-4.228,0.397-6.339
		c0.361-0.005,0.722-0.005,1.083-0.008h-0.001c0.438,0.429,0.877,0.854,1.314,1.284c1.303,0.993,2.606,1.984,3.911,2.979
		c0.438,0.292,0.875,0.585,1.313,0.88c0.399,0.14,0.799,0.28,1.197,0.422c-2.903,0.693-5.808,1.387-8.711,2.078
		C262.4,134.804,262.232,134.37,262.064,133.939z"/>
	<path fill-rule="evenodd" clip-rule="evenodd" fill="#C8C8C8" d="M257.15,128.755c0.363,1.28,0.727,2.557,1.088,3.832
		c-1.34-0.762-2.683-1.523-4.022-2.287C255.193,129.785,256.171,129.271,257.15,128.755z"/>
	<path fill-rule="evenodd" clip-rule="evenodd" fill="#999999" d="M295.749,134.045c0.424-0.434,0.85-0.867,1.274-1.304l0.584-0.013
		l0.578,0.065l0.369-0.134C297.618,133.122,296.685,133.584,295.749,134.045z"/>
	<path fill-rule="evenodd" clip-rule="evenodd" fill="#838383" d="M315.157,131.5l0.004,0.005L315.157,131.5z"/>
	<path fill-rule="evenodd" clip-rule="evenodd" fill="#C8C8C8" d="M251.806,127.285c0.05,0.418,0.091,0.838,0.122,1.259
		c-0.126-0.275-0.291-0.54-0.36-0.83C251.54,127.598,251.72,127.43,251.806,127.285z"/>
	<path fill-rule="evenodd" clip-rule="evenodd" fill="#FEFEFE" d="M237.642,110.875c-6.545-3.078-13.06-11.143-20.247-1.066
		c-16.468-23.951-16.52-64.501,3.54-74.023c2.248,5.664,4.482,11.282,6.992,17.601c4.063-6.248,7.771-11.945,11.462-17.618
		C257.862,47.279,256.716,87.911,237.642,110.875z"/>
	<path fill-rule="evenodd" clip-rule="evenodd" fill="#C9C9C9" d="M308.687,114.477c0.093-1.754,0.187-3.508,0.28-5.263
		c7.187,0.043,13.806,1.8,21.132,7.075c-5.17,2.791-9.339,5.044-13.511,7.296C313.954,120.547,311.321,117.511,308.687,114.477z"/>
	<path fill-rule="evenodd" clip-rule="evenodd" fill="#313131" d="M193.713,61.596l-0.03,0.044L193.713,61.596z"/>
	<path fill-rule="evenodd" clip-rule="evenodd" fill="#353535" d="M127.955,125.199c-0.414-0.494-0.827-0.988-1.24-1.482
		C127.128,124.211,127.542,124.705,127.955,125.199z"/>
	<path fill-rule="evenodd" clip-rule="evenodd" fill="#353535" d="M133.338,130.055c-0.205-0.382-0.409-0.762-0.614-1.143
		C132.929,129.293,133.133,129.673,133.338,130.055z"/>
	<path fill-rule="evenodd" clip-rule="evenodd" fill="#BBBBBB" d="M309.811,122.356c0.094,0.444,0.188,0.891,0.282,1.337
		c-1.748,0.449-3.495,0.897-5.242,1.345c-0.291-0.399-0.582-0.797-0.873-1.195c1.153-1.68,1.509-4.723,4.774-2.8
		C309.105,121.481,309.458,121.918,309.811,122.356z"/>
	<path fill-rule="evenodd" clip-rule="evenodd" fill="#D4D4D4" d="M304.851,125.038c1.747-0.447,3.494-0.896,5.242-1.345
		c-1.317,1.209-2.632,2.417-3.947,3.627c-0.43-0.345-0.855-0.688-1.284-1.031C304.86,125.87,304.856,125.454,304.851,125.038z"/>
	<path fill-rule="evenodd" clip-rule="evenodd" fill="#DEDEDE" d="M304.851,125.038c0.006,0.416,0.01,0.832,0.011,1.251
		c-0.414,0.469-0.829,0.938-1.243,1.407c-0.651,0.232-1.303,0.467-1.955,0.698c0.037-0.557-0.112-1.229,0.145-1.651
		c0.624-1.027,1.435-1.942,2.17-2.9C304.269,124.241,304.56,124.639,304.851,125.038z"/>
	<path fill-rule="evenodd" clip-rule="evenodd" fill="#BBBBBB" d="M303.618,127.696c0.414-0.469,0.829-0.938,1.243-1.407
		c0.429,0.343,0.854,0.687,1.284,1.031C305.303,127.444,304.46,127.57,303.618,127.696z"/>
	<path fill-rule="evenodd" clip-rule="evenodd" fill="#DDDDDD" d="M309.811,122.356c-0.353-0.438-0.705-0.875-1.059-1.313
		C309.105,121.481,309.458,121.918,309.811,122.356z"/>
	<path fill-rule="evenodd" clip-rule="evenodd" fill="#CDCDCD" d="M298.186,132.794l-0.578-0.065l-0.584,0.013
		c0.232-0.313,0.466-0.626,0.697-0.938C297.876,132.133,298.031,132.464,298.186,132.794z"/>
	<path fill-rule="evenodd" clip-rule="evenodd" d="M271.279,133.157c-0.398-0.142-0.798-0.282-1.197-0.422
		c-0.438-0.295-0.875-0.588-1.313-0.88c-1.305-0.994-2.608-1.985-3.911-2.979c-0.089-0.432-0.175-0.86-0.264-1.291
		c0.937-0.959,1.874-1.921,2.813-2.876c2.473-1.677,4.945-3.352,8.362-5.666c-2.366-0.777-3.465-1.135-4.562-1.496
		c-1.662-0.017-3.325-0.035-4.987-0.053c-1.311-0.013-2.621-0.025-3.933-0.038c-3.523-0.081-7.048-0.162-10.573-0.245
		c4.635-6.039,11.386-5.411,17.528-4.576c3.391,0.461,8.522,0.013,9.755,5.297c1.266,5.431-3.713,6.467-6.497,9.032
		c-0.446,0.412-0.97,0.739-2.463,1.864c5.637,0.727,10.381,1.34,16.311,2.106c-1.476,1.758-2.507,2.986-3.537,4.212
		C278.968,134.486,275.124,133.823,271.279,133.157z"/>
	<path fill-rule="evenodd" clip-rule="evenodd" fill="#595959" d="M208.034,122.044c3.463-1.577,6.927-3.153,10.39-4.729
		c-0.956,4.324-1.909,8.645-2.863,12.967c-3.324-2.211-6.648-4.421-9.971-6.628C206.405,123.116,207.22,122.579,208.034,122.044z"/>
	<path fill-rule="evenodd" clip-rule="evenodd" fill="#767676" d="M208.034,122.044c-0.814,0.535-1.629,1.072-2.445,1.609
		C206.405,123.116,207.22,122.579,208.034,122.044z"/>
	<path fill-rule="evenodd" clip-rule="evenodd" fill="#C5C5C5" d="M169.104,124.967c2.154-2.514,4.308-5.029,7.004-8.177
		c1.406,1.574,2.471,2.764,4.568,5.11c-3.902,1.243-6.931,2.212-9.961,3.178C170.178,125.04,169.641,125.002,169.104,124.967z"/>
	<path fill-rule="evenodd" clip-rule="evenodd" fill="#ADADAD" d="M169.104,124.967c0.537,0.035,1.074,0.073,1.611,0.111
		c-0.913,0.383-1.829,0.767-2.744,1.149l0.109,0.109C168.421,125.881,168.763,125.424,169.104,124.967z"/>
	<path fill-rule="evenodd" clip-rule="evenodd" fill="#B0B0B0" d="M166.908,130.069c-0.497,0.035-0.994,0.071-1.492,0.106
		c0.443-0.835,0.885-1.67,1.327-2.505l-0.115-0.113C166.721,128.395,166.814,129.232,166.908,130.069z"/>
	<path fill-rule="evenodd" clip-rule="evenodd" fill="#B0B0B0" d="M166.743,127.671c0.444-0.443,0.89-0.888,1.337-1.334
		l-0.109-0.109c-0.446,0.442-0.896,0.886-1.343,1.327C166.628,127.558,166.743,127.671,166.743,127.671z"/>
	<path fill-rule="evenodd" clip-rule="evenodd" fill="#C7C7C7" d="M271.208,117.549c1.097,0.361,2.195,0.719,4.562,1.496
		c-3.417,2.314-5.89,3.989-8.362,5.666c-1.706-2.419-3.413-4.835-5.119-7.251c1.312,0.012,2.622,0.025,3.933,0.038
		C267.883,117.514,269.546,117.532,271.208,117.549z"/>
	<path fill-rule="evenodd" clip-rule="evenodd" fill="#C7C7C7" d="M263.545,127.593c-0.361,0.003-0.722,0.003-1.083,0.008
		c-0.107-0.43-0.095-0.853,0.039-1.274C262.85,126.748,263.198,127.171,263.545,127.593z"/>
	<path fill-rule="evenodd" clip-rule="evenodd" fill="#C7C7C7" d="M264.595,127.586c0.089,0.431,0.175,0.859,0.264,1.291
		c-0.438-0.43-0.877-0.855-1.314-1.284C263.895,127.588,264.244,127.586,264.595,127.586z"/>
	<path fill-rule="evenodd" clip-rule="evenodd" fill="#C9C9C9" d="M268.77,131.855c0.438,0.292,0.875,0.585,1.313,0.88
		C269.645,132.44,269.207,132.147,268.77,131.855z"/>
	<path fill-rule="evenodd" clip-rule="evenodd" fill="#E2E2E2" d="M271.208,117.549c-1.662-0.017-3.325-0.035-4.987-0.053
		C267.883,117.514,269.546,117.532,271.208,117.549z"/>
</g>
</svg>
